USFL
nRows=259
nColumns=2
inDegrees=yes
endheader
time	tib_ant_r	
2.96069	 85.948080	
2.99395	 85.934098	
3.02722	 85.948478	
3.06048	 85.965642	
3.09375	 85.988727	
3.12702	 85.986177	
3.16028	 85.987598	
3.19355	 85.971770	
3.22681	 85.991845	
3.26008	 85.990765	
3.29335	 85.984009	
3.32661	 86.003182	
3.35988	 85.990739	
3.39315	 86.004558	
3.42641	 86.001408	
3.45968	 86.017956	
3.49294	 86.026180	
3.52621	 86.014919	
3.55948	 85.975755	
3.59274	 85.986659	
3.62601	 85.984181	
3.65927	 85.974580	
3.69254	 86.007347	
3.72581	 86.028570	
3.75907	 86.021199	
3.79234	 86.006972	
3.8256	 85.963145	
3.85887	 85.945448	
3.89214	 85.931698	
3.9254	 85.914238	
3.95867	 85.912533	
3.99194	 85.945522	
4.0252	 85.968471	
4.05847	 85.991584	
4.09173	 86.019516	
4.125	 86.006058	
4.15827	 86.003938	
4.19153	 86.033240	
4.2248	 86.032714	
4.25806	 86.022955	
4.29133	 85.990683	
4.3246	 86.004331	
4.35786	 85.994292	
4.39113	 85.958473	
4.4244	 85.956742	
4.45766	 85.957143	
4.49093	 85.948365	
4.52419	 85.951973	
4.55746	 85.937862	
4.59073	 85.927244	
4.62399	 85.929110	
4.65726	 85.938116	
4.69052	 85.964342	
4.72379	 85.978856	
4.75706	 85.944040	
4.79032	 85.983885	
4.82359	 86.039819	
4.85685	 86.017352	
4.89012	 86.031347	
4.92339	 85.975234	
4.95665	 85.946554	
4.98992	 85.973805	
5.02319	 85.958842	
5.05645	 85.939495	
5.08972	 85.922698	
5.12298	 85.930064	
5.15625	 85.938201	
5.18952	 86.014061	
5.22278	 86.013458	
5.25605	 86.060069	
5.28931	 86.099635	
5.32258	 86.057154	
5.35585	 86.059924	
5.38911	 86.029023	
5.42238	 85.944789	
5.45565	 85.973927	
5.48891	 86.147626	
5.52218	 85.818960	
5.55544	 85.591936	
5.58871	 85.698105	
5.62198	 85.998364	
5.65524	 86.212988	
5.68851	 86.450792	
5.72177	 86.570602	
5.75504	 80.232177	
5.78831	 80.716820	
5.82157	 80.914608	
5.85484	 81.918056	
5.8881	 71.854592	
5.92137	 72.358695	
5.95464	 72.675110	
5.9879	 72.716284	
6.02117	 73.360430	
6.05444	 73.725457	
6.0877	 73.490482	
6.12097	 73.730056	
6.15423	 71.896940	
6.1875	 71.620805	
6.22077	 71.970047	
6.25403	 71.585902	
6.2873	 71.631215	
6.32056	 71.811281	
6.35383	 71.607147	
6.3871	 71.549041	
6.42036	 71.679983	
6.45363	 71.587495	
6.4869	 71.774946	
6.52016	 71.746651	
6.55343	 71.552295	
6.58669	 71.415830	
6.61996	 71.302863	
6.65323	 70.950934	
6.68649	 70.807070	
6.71976	 70.880077	
6.75302	 70.888386	
6.78629	 70.864152	
6.81956	 70.858194	
6.85282	 70.702796	
6.88609	 70.686020	
6.91935	 70.809411	
6.95262	 70.951382	
6.98589	 70.908078	
7.01915	 70.878841	
7.05242	 70.787780	
7.08569	 70.822746	
7.11895	 70.878270	
7.15222	 70.800959	
7.18548	 70.772073	
7.21875	 70.777485	
7.25202	 70.661336	
7.28528	 70.659565	
7.31855	 70.593489	
7.35181	 70.675159	
7.38508	 70.648773	
7.41835	 70.677483	
7.45161	 70.746549	
7.48488	 70.702473	
7.51815	 70.767683	
7.55141	 70.645802	
7.58468	 70.684623	
7.61794	 70.737402	
7.65121	 70.693971	
7.68448	 70.674384	
7.71774	 70.719910	
7.75101	 70.758434	
7.78427	 70.740130	
7.81754	 70.786114	
7.85081	 70.805881	
7.88407	 70.890427	
7.91734	 70.822205	
7.9506	 70.795392	
7.98387	 70.835723	
8.01714	 70.831061	
8.0504	 70.885878	
8.08367	 70.873982	
8.11694	 70.820860	
8.1502	 70.778321	
8.18347	 70.866857	
8.21673	 70.894427	
8.25	 70.693723	
8.28327	 70.883944	
8.31653	 70.873766	
8.3498	 71.080832	
8.38306	 71.051576	
8.41633	 71.002967	
8.4496	 71.013009	
8.48286	 70.986818	
8.51613	 70.973557	
8.5494	 70.987861	
8.58266	 70.987343	
8.61593	 70.937107	
8.64919	 70.921811	
8.68246	 70.945587	
8.71573	 71.083800	
8.74899	 71.053862	
8.78226	 71.061391	
8.81552	 71.019121	
8.84879	 71.047719	
8.88206	 71.027158	
8.91532	 71.067500	
8.94859	 71.077540	
8.98185	 71.039071	
9.01512	 71.116568	
9.04839	 71.104525	
9.08165	 71.272100	
9.11492	 71.336781	
9.14819	 71.468267	
9.18145	 71.361752	
9.21472	 71.268977	
9.24798	 71.171892	
9.28125	 71.286315	
9.31452	 71.303081	
9.34778	 71.315714	
9.38105	 71.358572	
9.41431	 71.365101	
9.44758	 71.370984	
9.48085	 71.409315	
9.51411	 71.357813	
9.54738	 71.375853	
9.58065	 71.359836	
9.61391	 71.327814	
9.64718	 71.368367	
9.68044	 71.465111	
9.71371	 71.479853	
9.74698	 71.373966	
9.78024	 71.388650	
9.81351	 71.364706	
9.84677	 71.306701	
9.88004	 71.251969	
9.91331	 71.278772	
9.94657	 71.290879	
9.97984	 71.189747	
10.0131	 71.278092	
10.0464	 71.279431	
10.0796	 71.363035	
10.1129	 71.324260	
10.1462	 71.432886	
10.1794	 71.358559	
10.2127	 71.217373	
10.246	 71.169167	
10.2792	 71.244003	
10.3125	 71.254840	
10.3458	 71.164696	
10.379	 71.230155	
10.4123	 71.269864	
10.4456	 71.360032	
10.4788	 71.298183	
10.5121	 71.206525	
10.5454	 71.210218	
10.5786	 71.229569	
10.6119	 71.204321	
10.6452	 71.263137	
10.6784	 71.311188	
10.7117	 71.269184	
10.745	 71.389938	
10.7782	 71.426279	
10.8115	 71.467220	
10.8448	 71.550206	
10.878	 71.527431	
10.9113	 71.686787	
10.9446	 71.784412	
10.9778	 71.773439	
11.0111	 71.939387	
11.0444	 71.847907	
11.0776	 71.878065	
11.1109	 71.984195	
11.1442	 71.935997	
11.1774	 71.872091	
11.2107	 71.995647	
11.244	 71.644073	
11.2772	 71.678581	
11.3105	 71.385045	
11.3437	 71.188653	
11.377	 71.182034	
11.4103	 71.085845	
11.4435	 70.954052	
11.4768	 71.120110	
11.5101	 70.933802	
11.5433	 70.681494	
